<?xml version="1.0" standalone="no"?>
<!DOCTYPE svg PUBLIC "-//W3C//DTD SVG 20010904//EN"
 "http://www.w3.org/TR/2001/REC-SVG-20010904/DTD/svg10.dtd">
<svg version="1.0" xmlns="http://www.w3.org/2000/svg"
 width="500.000000pt" height="500.000000pt" viewBox="0 0 500.000000 500.000000"
 preserveAspectRatio="xMidYMid meet">
<metadata>
Created by potrace 1.14, written by Peter Selinger 2001-2017
</metadata>
<g transform="translate(0.000000,500.000000) scale(0.100000,-0.100000)"
fill="#000000" stroke="none">
<path d="M2359 4831 c-24 -19 -24 -20 -27 -272 -2 -140 0 -264 3 -277 15 -60
83 -81 123 -39 21 23 22 30 22 293 0 270 0 271 -23 292 -29 27 -67 28 -98 3z"/>
<path d="M3523 4107 c-171 -170 -193 -196 -193 -225 0 -41 30 -72 72 -72 28 0
54 22 216 183 101 100 188 193 193 206 19 47 -24 101 -79 101 -9 0 -103 -87
-209 -193z"/>
<path d="M2440 4012 l-30 -30 0 -1311 0 -1311 205 0 205 0 0 29 c0 54 50 226
89 308 62 128 113 197 267 354 78 80 163 178 188 217 191 295 235 650 125 992
-29 87 -111 247 -167 323 -189 258 -469 419 -784 452 -66 7 -68 7 -98 -23z
m342 -261 c201 -86 369 -253 469 -466 62 -133 104 -354 79 -415 -16 -38 -56
-52 -98 -34 -35 14 -38 23 -47 131 -25 290 -226 562 -488 658 -78 29 -100 83
-52 130 31 32 55 31 137 -4z"/>
<path d="M1690 3940 c-50 -24 -105 -72 -125 -111 -13 -25 -12 -27 22 -43 59
-28 151 -106 184 -155 37 -57 37 -104 -2 -133 -38 -29 -73 -15 -120 48 -73 96
-166 139 -290 133 -130 -7 -245 -83 -305 -201 -21 -41 -28 -71 -32 -133 -2
-44 1 -92 6 -106 10 -24 16 -26 93 -32 102 -7 204 -53 268 -122 48 -52 52 -85
16 -120 -35 -36 -68 -32 -119 15 -115 106 -261 106 -409 0 -159 -114 -212
-365 -116 -552 26 -52 122 -148 169 -170 l35 -17 50 48 c92 88 206 151 275
151 60 0 92 -73 53 -118 -10 -11 -40 -27 -67 -36 -105 -34 -183 -104 -228
-203 -18 -38 -22 -66 -22 -138 0 -103 24 -168 88 -242 44 -51 140 -100 214
-109 50 -6 52 -6 52 18 0 114 120 257 218 258 36 0 64 -35 60 -77 -2 -30 -11
-42 -47 -67 -69 -49 -86 -78 -85 -144 1 -67 27 -132 74 -185 l32 -37 173 0
173 0 32 37 c18 20 42 57 54 82 21 46 21 48 21 1161 0 1248 6 1145 -72 1231
-55 60 -104 82 -198 86 -65 3 -88 0 -125 -17z"/>
<path d="M3762 2940 c-27 -26 -28 -70 -3 -101 19 -24 20 -24 268 -27 136 -2
263 0 280 3 23 4 38 15 48 35 21 40 19 57 -10 85 l-24 25 -269 0 c-256 0 -269
-1 -290 -20z"/>
<path d="M3380 1963 c-33 -12 -50 -37 -50 -72 0 -33 14 -50 188 -223 173 -174
190 -188 223 -188 40 0 64 20 74 63 7 27 -5 41 -186 222 -107 106 -203 195
-214 198 -11 3 -27 3 -35 0z"/>
<path d="M1475 1213 c-44 -23 -65 -44 -86 -85 -26 -50 -25 -133 1 -175 l20
-33 820 0 821 0 21 46 c41 93 3 200 -84 243 -44 21 -51 21 -764 21 -636 -1
-722 -3 -749 -17z"/>
<path d="M1395 763 c-40 -60 -31 -164 18 -220 67 -76 27 -73 815 -73 766 0
743 -2 804 57 58 55 73 175 30 232 l-19 26 -815 3 -816 2 -17 -27z"/>
<path d="M1723 305 c14 -47 70 -111 121 -138 40 -21 49 -22 387 -22 l346 0 49
30 c51 32 114 112 114 146 0 18 -17 19 -514 19 l-514 0 11 -35z"/>
</g>
</svg>
